HIERARCHY
ROOT Hips
{
	OFFSET 0.000000 0.000000 0.000000
	CHANNELS 6 Xposition Yposition Zposition Xrotation Yrotation Zrotation
	JOINT LeftUpLeg_virtual
	{
		OFFSET 0.000000 0.000000 0.000000
		CHANNELS 3 Xrotation Yrotation Zrotation
		JOINT LeftUpLeg
		{
			OFFSET 10.205400 -3.823500 0.155100
			CHANNELS 3 Xrotation Yrotation Zrotation
			JOINT LeftLeg
			{
				OFFSET 0.708757 -12.982077 0.567790
				CHANNELS 3 Xrotation Yrotation Zrotation
				JOINT LeftFoot
				{
					OFFSET -0.708756 -10.717838 -2.184338
					CHANNELS 3 Xrotation Yrotation Zrotation
					JOINT LeftToeBase
					{
						OFFSET 0.108149 -7.191104 7.560241
						CHANNELS 3 Xrotation Yrotation Zrotation
						JOINT LeftToe_End
						{
							OFFSET 0.070230 0.081724 4.490308
							CHANNELS 3 Xrotation Yrotation Zrotation
							End Site
							{
								OFFSET 0 0 0
							}
						}
					}
				}
			}
		}
	}
	JOINT RightUpLeg_virtual
	{
		OFFSET 0.000000 0.000000 0.000000
		CHANNELS 3 Xrotation Yrotation Zrotation
		JOINT RightUpLeg
		{
			OFFSET -10.205400 -3.823500 0.005500
			CHANNELS 3 Xrotation Yrotation Zrotation
			JOINT RightLeg
			{
				OFFSET -0.708756 -12.982134 0.610632
				CHANNELS 3 Xrotation Yrotation Zrotation
				JOINT RightFoot
				{
					OFFSET 0.708754 -10.717769 -1.945823
					CHANNELS 3 Xrotation Yrotation Zrotation
					JOINT RightToeBase
					{
						OFFSET -0.108140 -7.191069 7.372968
						CHANNELS 3 Xrotation Yrotation Zrotation
						JOINT RightToe_End
						{
							OFFSET -0.070227 0.081735 4.479403
							CHANNELS 3 Xrotation Yrotation Zrotation
							End Site
							{
								OFFSET 0 0 0
							}
						}
					}
				}
			}
		}
	}
	JOINT Spine_virtual
	{
		OFFSET 0.000000 0.000000 0.000000
		CHANNELS 3 Xrotation Yrotation Zrotation
		JOINT Spine
		{
			OFFSET 0.000000 6.876099 0.125700
			CHANNELS 3 Xrotation Yrotation Zrotation
			JOINT Spine1
			{
				OFFSET 0.000000 5.730043 0.104720
				CHANNELS 3 Xrotation Yrotation Zrotation
				JOINT Spine1_split
				{
					OFFSET 0.000000 5.730043 0.104720
					CHANNELS 3 Xrotation Yrotation Zrotation
					JOINT Spine2
					{
						OFFSET 0.000000 5.730043 0.104720
						CHANNELS 3 Xrotation Yrotation Zrotation
						JOINT Neck_virtual
						{
							OFFSET 0.000000 0.000000 0.000000
							CHANNELS 3 Xrotation Yrotation Zrotation
							JOINT Neck
							{
								OFFSET 0.000000 10.314075 0.188496
								CHANNELS 3 Xrotation Yrotation Zrotation
								JOINT Head
								{
									OFFSET 0.000000 7.643700 -2.377400
									CHANNELS 3 Xrotation Yrotation Zrotation
									JOINT HeadTop_End
									{
										OFFSET 0.000000 43.788605 -13.619600
										CHANNELS 3 Xrotation Yrotation Zrotation
										End Site
										{
											OFFSET 0 0 0
										}
									}
								}
							}
						}
						JOINT LeftShoulder_virtual
						{
							OFFSET 0.000000 0.000000 0.000000
							CHANNELS 3 Xrotation Yrotation Zrotation
							JOINT LeftShoulder
							{
								OFFSET 2.196100 4.412489 0.087492
								CHANNELS 3 Xrotation Yrotation Zrotation
								JOINT LeftShoulder_split
								{
									OFFSET 2.196100 4.412489 0.087492
									CHANNELS 3 Xrotation Yrotation Zrotation
									JOINT LeftArm
									{
										OFFSET 8.771219 -2.981674 -0.026999
										CHANNELS 3 Xrotation Yrotation Zrotation
										JOINT LeftForeArm
										{
											OFFSET 8.512804 0.000000 -0.000000
											CHANNELS 3 Xrotation Yrotation Zrotation
											JOINT LeftHand
											{
												OFFSET 18.484802 0.000000 -0.000000
												CHANNELS 3 Xrotation Yrotation Zrotation
												End Site
												{
													OFFSET 0 0 0
												}
											}
										}
									}
								}
							}
						}
						JOINT RightShoulder_virtual
						{
							OFFSET 0.000000 0.000000 0.000000
							CHANNELS 3 Xrotation Yrotation Zrotation
							JOINT RightShoulder
							{
								OFFSET -2.196100 4.412496 0.070690
								CHANNELS 3 Xrotation Yrotation Zrotation
								JOINT RightShoulder_split
								{
									OFFSET -2.196100 4.412496 0.070690
									CHANNELS 3 Xrotation Yrotation Zrotation
									JOINT RightArm
									{
										OFFSET -8.771282 -2.981682 -0.094208
										CHANNELS 3 Xrotation Yrotation Zrotation
										JOINT RightForeArm
										{
											OFFSET -8.494598 0.000000 0.000000
											CHANNELS 3 Xrotation Yrotation Zrotation
											JOINT RightHand
											{
												OFFSET -18.483803 0.000000 0.000001
												CHANNELS 3 Xrotation Yrotation Zrotation
												End Site
												{
													OFFSET 0 0 0
												}
											}
										}
									}
								}
							}
						}
					}
				}
			}
		}
	}
}
MOTION
Frames: 11
Frame Time: 0.03333333
2.529964 24.286690 56.877480 0.000000 0.000000 0.000000 4.157597 -3.493558 -0.338365 38.774321 42.914543 7.180979 28.348702 10.095398 -4.383011 -46.885779 30.855680 -20.737800 -13.809440 -5.574939 -7.980121 0.000000 0.000000 0.000000 4.706254 -3.468999 -1.185591 -77.587602 8.683348 -8.342758 52.120470 -4.526903 8.229803 8.460412 0.604294 27.755672 11.763248 -3.165944 -30.201666 0.000000 0.000000 0.000000 2.568211 -1.314514 -0.079738 2.221010 -12.002878 3.661230 2.642396 -6.163976 -0.920593 0.204741 -1.054515 0.119010 0.000000 0.000000 0.000000 5.864228 -5.121144 1.345506 12.217597 19.336892 6.732124 3.241899 12.785698 -1.305108 0.000000 0.000000 0.000000 4.575977 -5.925710 0.280646 1.939852 -13.183964 -10.629669 -4.372663 0.084023 -7.635743 -60.888186 -19.245410 -25.721900 -22.954644 -54.745305 -4.548947 0.000000 0.000000 0.000000 3.996681 -6.548481 0.829880 -0.630615 0.526586 -14.037460 -10.733808 -8.105136 -4.744447 -44.854812 39.551539 48.081769 5.094914 3.567233 -0.510821 0.000000 0.000000 0.000000 
2.239639 24.257812 58.156822 0.000000 0.000000 0.000000 5.142163 -8.760862 -1.552934 42.464857 45.562959 4.584846 22.013590 11.022344 -5.590768 -40.522040 27.213960 -18.954811 -23.805964 -5.877274 -8.400553 0.000000 0.000000 0.000000 5.790340 -9.531982 -2.104578 -76.143236 8.175009 -2.024276 56.094896 -8.963999 9.670505 3.248651 -4.210991 22.652874 13.885343 -4.293247 -30.425737 0.000000 0.000000 0.000000 3.587467 -6.859537 -1.457922 2.282997 -13.445863 5.023657 3.419739 -8.899953 -0.478627 0.042854 -1.049772 0.075186 0.000000 0.000000 0.000000 6.457633 -7.862209 2.105413 8.521718 21.593983 6.438860 8.781777 20.529926 -1.422935 0.000000 0.000000 0.000000 4.826913 -8.759134 0.502310 0.414115 -21.485665 -13.741414 -3.675206 -1.046805 -6.065392 -52.244250 -28.847345 -24.255842 -13.560553 -40.870701 -2.183306 0.000000 0.000000 0.000000 4.590917 -9.189016 1.785314 -0.640085 -3.914178 -6.508538 -8.438832 -7.079349 -4.534030 -29.457646 34.259997 35.233025 3.143157 -3.858103 1.664543 0.000000 0.000000 0.000000 
2.034470 24.264050 59.457623 0.000000 0.000000 0.000000 6.434842 -14.414955 -2.719310 41.353128 47.583882 6.015102 20.253908 10.701070 -7.755226 -29.545646 24.255057 -17.877499 -31.317493 -5.491175 -9.763576 0.000000 0.000000 0.000000 6.933862 -14.948318 -2.880336 -75.205601 8.260986 3.166941 60.770283 -10.877205 10.799426 -0.387198 -6.978179 19.192019 14.769548 -4.886046 -29.839567 0.000000 0.000000 0.000000 5.230993 -11.838207 -2.528376 2.246084 -14.151973 6.337076 4.046187 -11.022396 -0.180607 -0.059383 -0.903623 0.032270 0.000000 0.000000 0.000000 7.057471 -9.973440 2.652929 4.057303 23.257682 6.689555 12.719980 26.343782 -2.430363 0.000000 0.000000 0.000000 4.888441 -10.910505 0.587978 -1.038968 -28.362637 -15.678395 -2.570902 -2.271868 -4.226229 -43.751671 -35.209120 -22.311597 -5.181862 -29.810856 -1.507992 0.000000 0.000000 0.000000 4.842159 -11.203608 2.461094 -0.478493 -7.337618 -0.172668 -6.400167 -5.956636 -4.287706 -19.532685 27.610978 26.108227 0.673510 -3.719505 2.885021 0.000000 0.000000 0.000000 
1.909465 24.271338 60.864834 0.000000 0.000000 0.000000 7.607816 -20.339897 -3.845334 35.193335 48.571248 12.114041 24.109548 9.155773 -10.984710 -17.181003 22.760794 -16.411369 -32.573855 -4.520405 -12.260860 0.000000 0.000000 0.000000 7.838441 -19.817575 -3.829650 -74.278376 8.624319 7.027645 64.162722 -10.421696 11.146461 -1.730694 -7.407035 18.925670 13.491317 -4.737621 -28.542964 0.000000 0.000000 0.000000 7.274971 -16.768664 -3.354156 2.299896 -14.085325 7.414429 4.412326 -12.418137 -0.058565 -0.096078 -0.606867 0.063749 0.000000 0.000000 0.000000 7.450264 -11.368398 2.876168 -0.708889 24.209899 7.379591 14.521090 30.291158 -3.655412 0.000000 0.000000 0.000000 4.600710 -12.304008 0.499689 -1.834748 -33.373537 -16.085977 -1.000968 -2.988042 -2.588075 -39.268305 -38.222353 -22.782233 2.866487 -23.056379 -1.196917 0.000000 0.000000 0.000000 4.650228 -12.459581 2.801302 -0.379077 -9.318571 4.672594 -4.133354 -5.030079 -3.961549 -14.257726 21.476410 19.252731 -2.467495 1.308416 3.756824 0.000000 0.000000 0.000000 
1.859528 24.304115 62.351948 0.000000 0.000000 0.000000 8.454934 -26.149979 -5.046548 24.596071 47.761935 21.938697 32.720510 6.907285 -14.654176 -8.194260 22.778490 -13.459440 -29.045007 -3.472640 -15.574365 0.000000 0.000000 0.000000 8.338230 -24.480800 -4.978770 -72.143709 9.104652 9.516992 64.788278 -8.790526 10.808566 -2.493902 -6.443353 20.201989 11.595871 -4.262788 -26.039458 0.000000 0.000000 0.000000 9.178772 -21.943415 -4.068575 2.521383 -13.287191 8.158038 4.462578 -13.105844 -0.014141 -0.014549 -0.245575 0.170339 0.000000 0.000000 0.000000 7.417010 -12.081628 2.794548 -5.133565 24.576590 8.256324 14.202537 32.617732 -4.662435 0.000000 0.000000 0.000000 3.916570 -12.993614 0.215542 -1.739955 -36.522087 -15.159632 0.368261 -2.713637 -1.341644 -40.645978 -38.522807 -26.971288 10.751006 -19.585518 -0.428799 0.000000 0.000000 0.000000 4.113712 -12.986303 2.908594 -0.498676 -9.760787 7.961175 -1.950518 -4.725898 -3.318780 -12.214420 16.815939 13.343458 -5.945321 8.374604 4.660889 0.000000 0.000000 0.000000 
1.864169 24.474192 63.961308 0.000000 0.000000 0.000000 8.928451 -30.979744 -6.380669 11.485393 43.672417 33.732822 44.575512 2.830342 -17.289763 -3.012232 23.250732 -11.531215 -26.221318 -2.499982 -18.534917 0.000000 0.000000 0.000000 8.612031 -28.966795 -6.160631 -68.161996 9.732033 10.894095 62.317594 -7.139036 9.869324 -5.110441 -5.152175 20.971905 11.561439 -3.958908 -21.998240 0.000000 0.000000 0.000000 10.479854 -27.252527 -4.766947 2.877085 -11.960296 8.523605 4.162396 -13.185876 0.035057 0.139733 0.130162 0.192112 0.000000 0.000000 0.000000 6.863045 -12.209018 2.490472 -8.614171 24.466557 9.005663 12.132292 33.584836 -5.281170 0.000000 0.000000 0.000000 3.028733 -13.097169 -0.190176 -0.755284 -38.003459 -13.236055 1.741096 -1.894601 -0.048185 -46.778180 -37.100365 -33.693286 17.789530 -17.612174 0.793136 0.000000 0.000000 0.000000 3.360159 -12.886205 2.934057 -0.754190 -9.122968 9.796946 0.194578 -5.201622 -2.452230 -12.593012 13.750253 8.153800 -9.277257 14.434669 5.532893 0.000000 0.000000 0.000000 
1.835182 24.834402 65.723534 0.000000 0.000000 0.000000 8.909747 -34.735303 -7.668842 -0.473074 36.098123 43.863120 56.863476 -2.364992 -17.533982 -0.740496 22.761255 -11.237955 -27.589639 -1.265285 -20.204345 0.000000 0.000000 0.000000 8.626800 -32.842866 -7.244031 -62.614885 10.472944 10.964819 58.441633 -5.668647 8.847775 -9.222618 -3.833007 20.497037 13.365133 -3.535129 -16.753095 0.000000 0.000000 0.000000 10.993043 -32.175925 -5.402213 3.311878 -10.419325 8.355490 3.537371 -12.827169 0.134003 0.245990 0.354698 0.227494 0.000000 0.000000 0.000000 5.756308 -11.869062 2.114078 -10.403240 24.243994 9.313914 9.262965 33.389192 -5.790192 0.000000 0.000000 0.000000 2.179539 -12.828530 -0.608382 0.928028 -37.983816 -10.549399 2.554488 -0.770551 1.037113 -55.430568 -35.623767 -40.806648 22.885186 -15.089753 1.832049 0.000000 0.000000 0.000000 2.524764 -12.331843 2.981308 -0.980731 -7.844838 10.360887 2.244244 -6.177603 -1.778658 -15.637908 11.987018 4.023597 -11.818812 18.119884 6.014373 0.000000 0.000000 0.000000 
1.660612 25.388233 67.621429 0.000000 0.000000 0.000000 8.436281 -37.708692 -8.608157 -10.334851 26.597038 50.728433 68.221760 -6.792313 -15.433987 0.042297 21.411656 -11.592860 -31.563896 -0.084663 -20.415768 0.000000 0.000000 0.000000 8.244310 -36.273734 -7.898631 -56.304883 11.198393 9.583600 54.589911 -4.104426 7.632425 -12.979046 -2.730410 20.188704 14.593360 -2.563423 -11.330223 0.000000 0.000000 0.000000 10.475345 -36.245949 -5.824965 3.648339 -8.921577 7.553173 2.708347 -12.206526 0.295769 0.224114 0.426467 0.126650 0.000000 0.000000 0.000000 4.177559 -11.195267 1.793210 -10.054922 24.118161 9.018215 6.567156 32.291816 -6.538376 0.000000 0.000000 0.000000 1.621431 -12.316590 -0.937958 3.098866 -36.677180 -7.172867 2.352986 0.111313 2.210601 -64.588222 -35.707013 -46.510054 25.276645 -12.557900 2.342620 0.000000 0.000000 0.000000 1.717770 -11.480576 3.158228 -1.124453 -6.484370 9.514857 3.955258 -7.015505 -1.952662 -22.182329 11.661168 1.580945 -13.277387 20.394178 5.960297 0.000000 0.000000 0.000000 
1.317959 26.075174 69.626877 0.000000 0.000000 0.000000 7.800455 -40.098811 -8.710721 -18.232340 17.082013 53.732320 77.113478 -9.291742 -11.521006 0.473453 20.627506 -12.527457 -32.215294 0.348899 -20.114564 0.000000 0.000000 0.000000 7.602184 -39.052177 -7.882174 -49.765964 11.781925 7.023575 51.172276 -2.084418 5.812789 -16.672447 -2.243947 21.564330 12.736426 -1.158692 -6.943420 0.000000 0.000000 0.000000 9.164960 -39.474447 -6.010561 3.855190 -7.680140 6.133959 1.737194 -11.431529 0.471231 0.128407 0.396738 -0.036763 0.000000 0.000000 0.000000 2.368839 -10.298983 1.569414 -7.562846 24.102643 8.136756 4.740644 30.611433 -7.754373 0.000000 0.000000 0.000000 1.424821 -11.635340 -1.077787 5.495014 -33.985505 -3.179300 1.502004 0.410481 3.043329 -73.302000 -38.855949 -50.396339 24.791102 -11.219769 2.387637 0.000000 0.000000 0.000000 0.999305 -10.461472 3.415098 -1.173544 -5.560991 6.944127 4.451759 -7.195219 -2.419940 -32.986556 12.733992 1.335500 -13.710261 23.137054 5.829351 0.000000 0.000000 0.000000 
0.874555 26.751389 71.681435 0.000000 0.000000 0.000000 7.251601 -42.075164 -7.721713 -25.288263 9.299426 53.362134 81.555826 -9.343717 -7.332140 -0.045867 21.393399 -13.727918 -24.440801 -0.332980 -20.338481 0.000000 0.000000 0.000000 6.905316 -41.098720 -7.108179 -43.041045 11.863658 3.410570 48.563523 0.478950 3.385664 -21.102703 -2.531825 24.493274 7.514870 0.328731 -3.963163 0.000000 0.000000 0.000000 7.497191 -41.827874 -5.749485 3.844818 -6.695947 4.233615 0.767823 -10.552045 0.638278 0.008718 0.403603 -0.096226 0.000000 0.000000 0.000000 0.452711 -9.248798 1.425831 -3.380993 24.101190 6.854836 3.936863 28.623972 -9.392362 0.000000 0.000000 0.000000 1.572738 -10.800322 -0.953220 7.745680 -29.789190 1.268068 -0.043240 0.218008 3.477028 -81.467238 -44.854170 -52.464554 22.038951 -12.528317 2.204331 0.000000 0.000000 0.000000 0.401486 -9.340616 3.669261 -1.317737 -5.131700 2.674166 4.199064 -6.797022 -3.157668 -47.865320 14.691349 3.565265 -13.589279 28.072484 6.271764 0.000000 0.000000 0.000000 
0.423932 27.371223 73.843689 0.000000 0.000000 0.000000 6.683053 -43.469267 -5.920040 -32.360876 3.920660 50.713690 79.931921 -7.645628 -3.628426 -0.132214 23.133859 -16.390740 -11.141352 -1.879935 -19.893139 0.000000 0.000000 0.000000 6.097132 -42.592807 -5.699981 -36.402391 11.211039 -1.117332 47.362789 3.458976 0.848899 -26.089509 -3.788770 27.631056 2.724333 1.705644 -2.065947 0.000000 0.000000 0.000000 5.963263 -43.488433 -5.048098 3.521642 -5.938464 2.235164 -0.049535 -9.563697 0.794274 -0.082249 0.471361 -0.132135 0.000000 0.000000 0.000000 -1.427652 -8.097071 1.295401 1.556485 23.881429 5.520123 3.883395 26.625307 -11.334538 0.000000 0.000000 0.000000 1.985341 -9.795562 -0.563113 9.538594 -24.283184 5.771452 -1.415873 -0.413418 3.750760 -88.764599 -52.597156 -52.484379 17.771056 -17.254829 1.735746 0.000000 0.000000 0.000000 0.037813 -8.163277 3.846619 -1.765670 -5.240562 -3.176507 3.995716 -6.144682 -3.752349 -65.266248 16.399120 7.997536 -13.646280 35.725813 8.048670 0.000000 0.000000 0.000000 
